<svg xmlns="http://www.w3.org/2000/svg" xmlns:xlink="http://www.w3.org/1999/xlink" width="500" zoomAndPan="magnify" viewBox="0 0 375 374.999991" height="500" preserveAspectRatio="xMidYMid meet" version="1.0"><defs><g/><clipPath id="3880b99306"><path d="M 60 143.09375 L 102 143.09375 L 102 203 L 60 203 Z M 60 143.09375 " clip-rule="nonzero"/></clipPath></defs><g fill="#ffffff" fill-opacity="1"><g transform="translate(106.466878, 195.752026)"><g><path d="M 27.078125 -41.390625 L 37.078125 -41.390625 L 23.296875 0 L 13.25 0 L -0.53125 -41.390625 L 5.609375 -41.390625 C 6.796875 -41.390625 7.851562 -41.050781 8.78125 -40.375 C 9.707031 -39.707031 10.347656 -38.820312 10.703125 -37.71875 L 18.265625 -15.078125 Z M 27.078125 -41.390625 "/></g></g></g><g fill="#ffffff" fill-opacity="1"><g transform="translate(149.632724, 195.752026)"><g><path d="M 8.515625 -41.390625 L 12 -41.390625 L 12 0 L 1.953125 0 L 1.953125 -34.828125 C 1.953125 -36.003906 2.242188 -37.09375 2.828125 -38.09375 C 3.421875 -39.101562 4.21875 -39.90625 5.21875 -40.5 C 6.226562 -41.09375 7.328125 -41.390625 8.515625 -41.390625 Z M 8.515625 -41.390625 "/></g></g></g><g fill="#ffffff" fill-opacity="1"><g transform="translate(170.269832, 195.752026)"><g><path d="M 22.640625 0 L 16.3125 -15.078125 L 12.125 -15.078125 L 12.125 0 L 2.0625 0 L 2.0625 -41.390625 L 18.390625 -41.390625 C 20.242188 -41.390625 21.925781 -40.9375 23.4375 -40.03125 C 24.957031 -39.125 26.160156 -37.910156 27.046875 -36.390625 C 27.929688 -34.867188 28.375 -33.1875 28.375 -31.34375 L 28.375 -25.0625 C 28.375 -23.644531 28.097656 -22.304688 27.546875 -21.046875 C 26.992188 -19.785156 26.226562 -18.703125 25.25 -17.796875 L 32.875 0 Z M 12.125 -31.34375 L 12.125 -25.0625 L 18.390625 -25.0625 L 18.390625 -31.34375 Z M 12.125 -31.34375 "/></g></g></g><g fill="#ffffff" fill-opacity="1"><g transform="translate(209.59219, 195.752026)"><g><path d="M 0.59375 -41.390625 L 32.40625 -41.390625 C 32.40625 -39.535156 31.953125 -37.847656 31.046875 -36.328125 C 30.140625 -34.816406 28.925781 -33.609375 27.40625 -32.703125 C 25.882812 -31.796875 24.195312 -31.34375 22.34375 -31.34375 L 20.875 -31.34375 L 20.875 0 L 10.875 0 L 10.875 -31.34375 L 0.59375 -31.34375 Z M 0.59375 -41.390625 "/></g></g></g><g fill="#ffffff" fill-opacity="1"><g transform="translate(247.968467, 195.752026)"><g><path d="M 20.640625 -41.390625 L 30.6875 -41.390625 L 30.6875 -10.046875 C 30.6875 -8.191406 30.234375 -6.503906 29.328125 -4.984375 C 28.421875 -3.472656 27.207031 -2.265625 25.6875 -1.359375 C 24.164062 -0.453125 22.484375 0 20.640625 0 L 11.890625 0 C 10.035156 0 8.347656 -0.453125 6.828125 -1.359375 C 5.304688 -2.265625 4.09375 -3.472656 3.1875 -4.984375 C 2.28125 -6.503906 1.828125 -8.191406 1.828125 -10.046875 L 1.828125 -41.390625 L 11.890625 -41.390625 L 11.890625 -10.046875 L 20.640625 -10.046875 Z M 20.640625 -41.390625 "/></g></g></g><g fill="#ffffff" fill-opacity="1"><g transform="translate(287.054299, 195.752026)"><g><path d="M 20.875 -41.390625 C 22.726562 -41.390625 24.410156 -40.9375 25.921875 -40.03125 C 27.441406 -39.125 28.65625 -37.910156 29.5625 -36.390625 C 30.46875 -34.867188 30.921875 -33.1875 30.921875 -31.34375 L 30.921875 0 L 20.875 0 L 20.875 -15.078125 L 12.125 -15.078125 L 12.125 0 L 2.0625 0 L 2.0625 -41.390625 Z M 12.125 -25.0625 L 20.875 -25.0625 L 20.875 -31.34375 L 12.125 -31.34375 Z M 12.125 -25.0625 "/></g></g></g><g fill="#ffffff" fill-opacity="1"><g transform="translate(326.376665, 195.752026)"><g><path d="M 11.890625 -10.046875 L 26.84375 -10.046875 L 26.84375 0 L 1.828125 0 L 1.828125 -31.34375 C 1.828125 -33.1875 2.28125 -34.867188 3.1875 -36.390625 C 4.09375 -37.910156 5.304688 -39.125 6.828125 -40.03125 C 8.347656 -40.9375 10.035156 -41.390625 11.890625 -41.390625 Z M 11.890625 -10.046875 "/></g></g></g><g fill="#ffffff" fill-opacity="1"><g transform="translate(146.225049, 222.224606)"><g><path d="M 0.25 -17.328125 L 13.5625 -17.328125 C 13.5625 -16.546875 13.367188 -15.835938 12.984375 -15.203125 C 12.609375 -14.566406 12.101562 -14.0625 11.46875 -13.6875 C 10.832031 -13.3125 10.128906 -13.125 9.359375 -13.125 L 8.734375 -13.125 L 8.734375 0 L 4.546875 0 L 4.546875 -13.125 L 0.25 -13.125 Z M 0.25 -17.328125 "/></g></g></g><g fill="#ffffff" fill-opacity="1"><g transform="translate(161.770864, 222.224606)"><g><path d="M 10.390625 -13.125 L 5.078125 -13.125 L 5.078125 -10.5 L 9.25 -10.5 L 9.25 -6.3125 L 5.078125 -6.3125 L 5.078125 -4.203125 L 12.9375 -4.203125 L 12.9375 0 L 0.859375 0 L 0.859375 -17.328125 L 12.9375 -17.328125 L 12.9375 -15.671875 C 12.9375 -14.972656 12.6875 -14.375 12.1875 -13.875 C 11.695312 -13.375 11.097656 -13.125 10.390625 -13.125 Z M 10.390625 -13.125 "/></g></g></g><g fill="#ffffff" fill-opacity="1"><g transform="translate(177.217668, 222.224606)"><g><path d="M 11.09375 -13.125 L 4.875 -13.125 L 4.875 -4.203125 L 11.09375 -4.203125 L 11.09375 0 L 4.875 0 C 4.101562 0 3.398438 -0.1875 2.765625 -0.5625 C 2.128906 -0.945312 1.617188 -1.457031 1.234375 -2.09375 C 0.859375 -2.726562 0.671875 -3.429688 0.671875 -4.203125 L 0.671875 -13.125 C 0.671875 -13.894531 0.859375 -14.597656 1.234375 -15.234375 C 1.617188 -15.867188 2.128906 -16.375 2.765625 -16.75 C 3.398438 -17.132812 4.101562 -17.328125 4.875 -17.328125 L 11.09375 -17.328125 Z M 11.09375 -13.125 "/></g></g></g><g fill="#ffffff" fill-opacity="1"><g transform="translate(190.882149, 222.224606)"><g><path d="M 8.734375 -17.328125 L 12.9375 -17.328125 L 12.9375 -2.59375 C 12.9375 -1.882812 12.679688 -1.273438 12.171875 -0.765625 C 11.660156 -0.253906 11.050781 0 10.34375 0 L 8.734375 0 L 8.734375 -6.265625 L 5.078125 -6.265625 L 5.078125 0 L 0.859375 0 L 0.859375 -17.328125 L 5.078125 -17.328125 L 5.078125 -10.46875 L 8.734375 -10.46875 Z M 8.734375 -17.328125 "/></g></g></g><g fill="#ffffff" fill-opacity="1"><g transform="translate(206.873554, 222.224606)"><g/></g></g><g fill="#ffffff" fill-opacity="1"><g transform="translate(216.849621, 222.224606)"><g><path d="M 11.09375 -13.125 L 4.875 -13.125 L 4.875 -4.203125 L 11.09375 -4.203125 L 11.09375 0 L 4.875 0 C 4.101562 0 3.398438 -0.1875 2.765625 -0.5625 C 2.128906 -0.945312 1.617188 -1.457031 1.234375 -2.09375 C 0.859375 -2.726562 0.671875 -3.429688 0.671875 -4.203125 L 0.671875 -13.125 C 0.671875 -13.894531 0.859375 -14.597656 1.234375 -15.234375 C 1.617188 -15.867188 2.128906 -16.375 2.765625 -16.75 C 3.398438 -17.132812 4.101562 -17.328125 4.875 -17.328125 L 11.09375 -17.328125 Z M 11.09375 -13.125 "/></g></g></g><g fill="#ffffff" fill-opacity="1"><g transform="translate(230.514104, 222.224606)"><g><path d="M 8.53125 -17.328125 C 9.3125 -17.328125 10.019531 -17.132812 10.65625 -16.75 C 11.289062 -16.375 11.796875 -15.867188 12.171875 -15.234375 C 12.554688 -14.597656 12.75 -13.894531 12.75 -13.125 L 12.75 -4.203125 C 12.75 -3.429688 12.554688 -2.726562 12.171875 -2.09375 C 11.796875 -1.457031 11.289062 -0.945312 10.65625 -0.5625 C 10.019531 -0.1875 9.3125 0 8.53125 0 L 4.875 0 C 4.101562 0 3.398438 -0.1875 2.765625 -0.5625 C 2.128906 -0.945312 1.617188 -1.457031 1.234375 -2.09375 C 0.859375 -2.726562 0.671875 -3.429688 0.671875 -4.203125 L 0.671875 -13.125 C 0.671875 -13.894531 0.859375 -14.597656 1.234375 -15.234375 C 1.617188 -15.867188 2.128906 -16.375 2.765625 -16.75 C 3.398438 -17.132812 4.101562 -17.328125 4.875 -17.328125 Z M 4.875 -4.203125 L 8.53125 -4.203125 L 8.53125 -13.125 L 4.875 -13.125 Z M 4.875 -4.203125 "/></g></g></g><g fill="#ffffff" fill-opacity="1"><g transform="translate(246.158947, 222.224606)"><g><path d="M 12.421875 -17.328125 L 16.609375 -17.328125 L 16.609375 0 L 12.421875 0 L 12.421875 -4.734375 L 10.84375 0 L 6.640625 0 L 5.078125 -4.734375 L 5.078125 0 L 0.859375 0 L 0.859375 -17.328125 L 1.234375 -17.328125 C 1.773438 -17.328125 2.296875 -17.21875 2.796875 -17 C 3.617188 -16.707031 4.351562 -16.242188 5 -15.609375 C 5.644531 -14.972656 6.109375 -14.21875 6.390625 -13.34375 L 8.734375 -6.3125 Z M 12.421875 -17.328125 "/></g></g></g><g fill="#ffffff" fill-opacity="1"><g transform="translate(265.888277, 222.224606)"><g><path d="M 7.703125 -17.328125 C 8.472656 -17.328125 9.175781 -17.132812 9.8125 -16.75 C 10.445312 -16.375 10.945312 -15.867188 11.3125 -15.234375 C 11.6875 -14.597656 11.875 -13.894531 11.875 -13.125 L 11.875 -10.5 C 11.875 -9.71875 11.6875 -9.007812 11.3125 -8.375 C 10.945312 -7.738281 10.445312 -7.234375 9.8125 -6.859375 C 9.175781 -6.492188 8.472656 -6.3125 7.703125 -6.3125 L 5.078125 -6.3125 L 5.078125 0 L 0.859375 0 L 0.859375 -17.328125 Z M 5.078125 -10.5 L 7.703125 -10.5 L 7.703125 -13.125 L 5.078125 -13.125 Z M 5.078125 -10.5 "/></g></g></g><g fill="#ffffff" fill-opacity="1"><g transform="translate(280.221119, 222.224606)"><g><path d="M 8.734375 -17.328125 C 9.515625 -17.328125 10.222656 -17.132812 10.859375 -16.75 C 11.492188 -16.375 12 -15.867188 12.375 -15.234375 C 12.75 -14.597656 12.9375 -13.894531 12.9375 -13.125 L 12.9375 0 L 8.734375 0 L 8.734375 -6.3125 L 5.078125 -6.3125 L 5.078125 0 L 0.859375 0 L 0.859375 -17.328125 Z M 5.078125 -10.5 L 8.734375 -10.5 L 8.734375 -13.125 L 5.078125 -13.125 Z M 5.078125 -10.5 "/></g></g></g><g fill="#ffffff" fill-opacity="1"><g transform="translate(296.163011, 222.224606)"><g><path d="M 8.734375 -17.328125 L 12.9375 -17.328125 L 12.9375 0 L 8.734375 0 L 5.078125 -8.09375 L 5.078125 0 L 0.859375 0 L 0.859375 -17.328125 C 2.148438 -17.328125 3.332031 -16.976562 4.40625 -16.28125 C 5.476562 -15.59375 6.28125 -14.671875 6.8125 -13.515625 L 8.734375 -9.234375 Z M 8.734375 -17.328125 "/></g></g></g><g fill="#ffffff" fill-opacity="1"><g transform="translate(312.203929, 222.224606)"><g><path d="M 13.390625 -17.328125 L 8.609375 -8.65625 L 8.609375 0.046875 L 4.40625 0.046875 L 4.40625 -8.65625 L -0.375 -17.328125 L 3.84375 -17.328125 L 6.515625 -12.453125 L 9.1875 -17.328125 Z M 13.390625 -17.328125 "/></g></g></g><path stroke-linecap="butt" transform="matrix(0.75, 0, 0, 0.75, -41.339374, 89.326465)" fill="none" stroke-linejoin="miter" d="M 152.155633 151.361598 C 152.1348 151.424098 152.108758 151.486598 152.087925 151.549098 " stroke="#0365a7" stroke-width="2" stroke-opacity="1" stroke-miterlimit="4"/><g clip-path="url(#3880b99306)"><path fill="#ffffff" d="M 72.777344 202.847656 C 72.761719 202.894531 72.742188 202.941406 72.726562 202.988281 C 71.914062 202.066406 71.179688 201.140625 70.523438 200.207031 C 67.582031 196.023438 65.230469 191.746094 63.46875 187.363281 C 61.636719 182.820312 60.578125 177.988281 60.289062 172.871094 C 59.851562 165.03125 62.152344 158.089844 67.191406 152.050781 C 71.15625 147.300781 76.609375 145.222656 82.636719 144.3125 C 88.039062 143.5 93.574219 143.925781 99.246094 145.582031 C 100.09375 145.832031 100.90625 146.179688 101.683594 146.636719 C 101.785156 146.695312 101.851562 146.78125 101.882812 146.890625 C 101.917969 147.003906 101.90625 147.113281 101.851562 147.21875 Z M 72.777344 202.847656 " fill-opacity="1" fill-rule="nonzero"/></g><path fill="#ff914d" d="M 72.726562 202.988281 C 72.742188 202.941406 72.761719 202.894531 72.777344 202.847656 C 69.226562 209.660156 65.636719 216.453125 62.015625 223.234375 C 61.199219 224.769531 60.402344 225.980469 59.636719 226.871094 C 55.316406 231.890625 47.195312 231.761719 42.617188 227.15625 C 41.753906 226.28125 40.703125 224.652344 39.46875 222.269531 C 26.308594 196.804688 13.199219 171.527344 0.132812 146.433594 C 0.0859375 146.34375 0.0898438 146.253906 0.140625 146.167969 C 0.195312 146.082031 0.269531 146.035156 0.371094 146.035156 C 6.296875 146.03125 11.867188 146.023438 17.085938 146.011719 C 19.976562 146 22.398438 146.152344 24.347656 146.464844 C 29.03125 147.222656 33.203125 149.121094 36.855469 152.15625 C 41.636719 156.125 44.851562 161.605469 47.683594 167.351562 C 50.433594 172.929688 53.308594 178.59375 56.304688 184.34375 C 57.945312 187.496094 59.660156 190.476562 61.441406 193.289062 C 63.230469 196.105469 65.609375 198.726562 68.585938 201.152344 C 69.867188 202.195312 71.246094 202.808594 72.726562 202.988281 Z M 72.726562 202.988281 " fill-opacity="1" fill-rule="nonzero"/></svg>