<svg xmlns="http://www.w3.org/2000/svg" xmlns:xlink="http://www.w3.org/1999/xlink" width="500" zoomAndPan="magnify" viewBox="0 0 375 374.999991" height="500" preserveAspectRatio="xMidYMid meet" version="1.0"><defs><g/><clipPath id="6d3240de38"><path d="M 100 155 L 130.8125 155 L 130.8125 199 L 100 199 Z M 100 155 " clip-rule="nonzero"/></clipPath><clipPath id="38a50d8be4"><path d="M 55.8125 156 L 110 156 L 110 219.972656 L 55.8125 219.972656 Z M 55.8125 156 " clip-rule="nonzero"/></clipPath></defs><g fill="#ffffff" fill-opacity="1"><g transform="translate(135.097114, 198.749987)"><g><path d="M 19.6875 -30.09375 L 26.96875 -30.09375 L 16.9375 0 L 9.625 0 L -0.390625 -30.09375 L 4.078125 -30.09375 C 4.941406 -30.09375 5.707031 -29.847656 6.375 -29.359375 C 7.050781 -28.878906 7.519531 -28.238281 7.78125 -27.4375 L 13.28125 -10.96875 Z M 19.6875 -30.09375 "/></g></g></g><g fill="#ffffff" fill-opacity="1"><g transform="translate(166.484717, 198.749987)"><g><path d="M 6.1875 -30.09375 L 8.734375 -30.09375 L 8.734375 0 L 1.421875 0 L 1.421875 -25.328125 C 1.421875 -26.179688 1.632812 -26.972656 2.0625 -27.703125 C 2.488281 -28.441406 3.066406 -29.023438 3.796875 -29.453125 C 4.535156 -29.878906 5.332031 -30.09375 6.1875 -30.09375 Z M 6.1875 -30.09375 "/></g></g></g><g fill="#ffffff" fill-opacity="1"><g transform="translate(181.490778, 198.749987)"><g><path d="M 16.46875 0 L 11.875 -10.96875 L 8.8125 -10.96875 L 8.8125 0 L 1.5 0 L 1.5 -30.09375 L 13.375 -30.09375 C 14.71875 -30.09375 15.941406 -29.765625 17.046875 -29.109375 C 18.148438 -28.453125 19.023438 -27.570312 19.671875 -26.46875 C 20.316406 -25.363281 20.640625 -24.140625 20.640625 -22.796875 L 20.640625 -18.234375 C 20.640625 -17.203125 20.4375 -16.226562 20.03125 -15.3125 C 19.632812 -14.394531 19.078125 -13.601562 18.359375 -12.9375 L 23.90625 0 Z M 8.8125 -22.796875 L 8.8125 -18.234375 L 13.375 -18.234375 L 13.375 -22.796875 Z M 8.8125 -22.796875 "/></g></g></g><g fill="#ffffff" fill-opacity="1"><g transform="translate(210.083628, 198.749987)"><g><path d="M 0.4375 -30.09375 L 23.5625 -30.09375 C 23.5625 -28.75 23.234375 -27.523438 22.578125 -26.421875 C 21.921875 -25.316406 21.039062 -24.4375 19.9375 -23.78125 C 18.832031 -23.125 17.601562 -22.796875 16.25 -22.796875 L 15.171875 -22.796875 L 15.171875 0 L 7.90625 0 L 7.90625 -22.796875 L 0.4375 -22.796875 Z M 0.4375 -30.09375 "/></g></g></g><g fill="#ffffff" fill-opacity="1"><g transform="translate(237.988545, 198.749987)"><g><path d="M 15 -30.09375 L 22.3125 -30.09375 L 22.3125 -7.3125 C 22.3125 -5.957031 21.984375 -4.726562 21.328125 -3.625 C 20.671875 -2.53125 19.789062 -1.648438 18.6875 -0.984375 C 17.582031 -0.328125 16.351562 0 15 0 L 8.640625 0 C 7.296875 0 6.070312 -0.328125 4.96875 -0.984375 C 3.863281 -1.648438 2.976562 -2.53125 2.3125 -3.625 C 1.65625 -4.726562 1.328125 -5.957031 1.328125 -7.3125 L 1.328125 -30.09375 L 8.640625 -30.09375 L 8.640625 -7.3125 L 15 -7.3125 Z M 15 -30.09375 "/></g></g></g><g fill="#ffffff" fill-opacity="1"><g transform="translate(266.409406, 198.749987)"><g><path d="M 15.171875 -30.09375 C 16.523438 -30.09375 17.753906 -29.765625 18.859375 -29.109375 C 19.960938 -28.453125 20.84375 -27.570312 21.5 -26.46875 C 22.15625 -25.363281 22.484375 -24.140625 22.484375 -22.796875 L 22.484375 0 L 15.171875 0 L 15.171875 -10.96875 L 8.8125 -10.96875 L 8.8125 0 L 1.5 0 L 1.5 -30.09375 Z M 8.8125 -18.234375 L 15.171875 -18.234375 L 15.171875 -22.796875 L 8.8125 -22.796875 Z M 8.8125 -18.234375 "/></g></g></g><g fill="#ffffff" fill-opacity="1"><g transform="translate(295.002262, 198.749987)"><g><path d="M 8.640625 -7.3125 L 19.515625 -7.3125 L 19.515625 0 L 1.328125 0 L 1.328125 -22.796875 C 1.328125 -24.140625 1.65625 -25.363281 2.3125 -26.46875 C 2.976562 -27.570312 3.863281 -28.453125 4.96875 -29.109375 C 6.070312 -29.765625 7.296875 -30.09375 8.640625 -30.09375 Z M 8.640625 -7.3125 "/></g></g></g><g fill="#ffffff" fill-opacity="1"><g transform="translate(164.006845, 217.999248)"><g><path d="M 0.1875 -12.59375 L 9.859375 -12.59375 C 9.859375 -12.03125 9.71875 -11.519531 9.4375 -11.0625 C 9.164062 -10.601562 8.800781 -10.234375 8.34375 -9.953125 C 7.882812 -9.679688 7.367188 -9.546875 6.796875 -9.546875 L 6.359375 -9.546875 L 6.359375 0 L 3.3125 0 L 3.3125 -9.546875 L 0.1875 -9.546875 Z M 0.1875 -12.59375 "/></g></g></g><g fill="#ffffff" fill-opacity="1"><g transform="translate(175.310826, 217.999248)"><g><path d="M 7.5625 -9.546875 L 3.6875 -9.546875 L 3.6875 -7.625 L 6.734375 -7.625 L 6.734375 -4.59375 L 3.6875 -4.59375 L 3.6875 -3.0625 L 9.40625 -3.0625 L 9.40625 0 L 0.625 0 L 0.625 -12.59375 L 9.40625 -12.59375 L 9.40625 -11.390625 C 9.40625 -10.890625 9.222656 -10.457031 8.859375 -10.09375 C 8.503906 -9.726562 8.070312 -9.546875 7.5625 -9.546875 Z M 7.5625 -9.546875 "/></g></g></g><g fill="#ffffff" fill-opacity="1"><g transform="translate(186.542811, 217.999248)"><g><path d="M 8.0625 -9.546875 L 3.546875 -9.546875 L 3.546875 -3.0625 L 8.0625 -3.0625 L 8.0625 0 L 3.546875 0 C 2.984375 0 2.46875 -0.132812 2 -0.40625 C 1.539062 -0.6875 1.171875 -1.054688 0.890625 -1.515625 C 0.617188 -1.984375 0.484375 -2.5 0.484375 -3.0625 L 0.484375 -9.546875 C 0.484375 -10.109375 0.617188 -10.617188 0.890625 -11.078125 C 1.171875 -11.535156 1.539062 -11.898438 2 -12.171875 C 2.46875 -12.453125 2.984375 -12.59375 3.546875 -12.59375 L 8.0625 -12.59375 Z M 8.0625 -9.546875 "/></g></g></g><g fill="#ffffff" fill-opacity="1"><g transform="translate(196.478799, 217.999248)"><g><path d="M 6.359375 -12.59375 L 9.40625 -12.59375 L 9.40625 -1.890625 C 9.40625 -1.367188 9.21875 -0.921875 8.84375 -0.546875 C 8.476562 -0.179688 8.039062 0 7.53125 0 L 6.359375 0 L 6.359375 -4.546875 L 3.6875 -4.546875 L 3.6875 0 L 0.625 0 L 0.625 -12.59375 L 3.6875 -12.59375 L 3.6875 -7.609375 L 6.359375 -7.609375 Z M 6.359375 -12.59375 "/></g></g></g><g fill="#ffffff" fill-opacity="1"><g transform="translate(215.360779, 217.999248)"><g><path d="M 8.0625 -9.546875 L 3.546875 -9.546875 L 3.546875 -3.0625 L 8.0625 -3.0625 L 8.0625 0 L 3.546875 0 C 2.984375 0 2.46875 -0.132812 2 -0.40625 C 1.539062 -0.6875 1.171875 -1.054688 0.890625 -1.515625 C 0.617188 -1.984375 0.484375 -2.5 0.484375 -3.0625 L 0.484375 -9.546875 C 0.484375 -10.109375 0.617188 -10.617188 0.890625 -11.078125 C 1.171875 -11.535156 1.539062 -11.898438 2 -12.171875 C 2.46875 -12.453125 2.984375 -12.59375 3.546875 -12.59375 L 8.0625 -12.59375 Z M 8.0625 -9.546875 "/></g></g></g><g fill="#ffffff" fill-opacity="1"><g transform="translate(225.296768, 217.999248)"><g><path d="M 6.203125 -12.59375 C 6.773438 -12.59375 7.289062 -12.453125 7.75 -12.171875 C 8.207031 -11.898438 8.570312 -11.535156 8.84375 -11.078125 C 9.125 -10.617188 9.265625 -10.109375 9.265625 -9.546875 L 9.265625 -3.0625 C 9.265625 -2.5 9.125 -1.984375 8.84375 -1.515625 C 8.570312 -1.054688 8.207031 -0.6875 7.75 -0.40625 C 7.289062 -0.132812 6.773438 0 6.203125 0 L 3.546875 0 C 2.984375 0 2.46875 -0.132812 2 -0.40625 C 1.539062 -0.6875 1.171875 -1.054688 0.890625 -1.515625 C 0.617188 -1.984375 0.484375 -2.5 0.484375 -3.0625 L 0.484375 -9.546875 C 0.484375 -10.109375 0.617188 -10.617188 0.890625 -11.078125 C 1.171875 -11.535156 1.539062 -11.898438 2 -12.171875 C 2.46875 -12.453125 2.984375 -12.59375 3.546875 -12.59375 Z M 3.546875 -3.0625 L 6.203125 -3.0625 L 6.203125 -9.546875 L 3.546875 -9.546875 Z M 3.546875 -3.0625 "/></g></g></g><g fill="#ffffff" fill-opacity="1"><g transform="translate(236.672755, 217.999248)"><g><path d="M 9.03125 -12.59375 L 12.078125 -12.59375 L 12.078125 0 L 9.03125 0 L 9.03125 -3.4375 L 7.890625 0 L 4.828125 0 L 3.6875 -3.4375 L 3.6875 0 L 0.625 0 L 0.625 -12.59375 L 0.90625 -12.59375 C 1.300781 -12.59375 1.675781 -12.515625 2.03125 -12.359375 C 2.632812 -12.148438 3.171875 -11.8125 3.640625 -11.34375 C 4.109375 -10.882812 4.441406 -10.335938 4.640625 -9.703125 L 6.359375 -4.59375 Z M 9.03125 -12.59375 "/></g></g></g><g fill="#ffffff" fill-opacity="1"><g transform="translate(251.018735, 217.999248)"><g><path d="M 5.59375 -12.59375 C 6.15625 -12.59375 6.664062 -12.453125 7.125 -12.171875 C 7.59375 -11.898438 7.960938 -11.535156 8.234375 -11.078125 C 8.503906 -10.617188 8.640625 -10.109375 8.640625 -9.546875 L 8.640625 -7.625 C 8.640625 -7.0625 8.503906 -6.550781 8.234375 -6.09375 C 7.960938 -5.632812 7.59375 -5.269531 7.125 -5 C 6.664062 -4.726562 6.15625 -4.59375 5.59375 -4.59375 L 3.6875 -4.59375 L 3.6875 0 L 0.625 0 L 0.625 -12.59375 Z M 3.6875 -7.625 L 5.59375 -7.625 L 5.59375 -9.546875 L 3.6875 -9.546875 Z M 3.6875 -7.625 "/></g></g></g><g fill="#ffffff" fill-opacity="1"><g transform="translate(261.440715, 217.999248)"><g><path d="M 6.359375 -12.59375 C 6.921875 -12.59375 7.429688 -12.453125 7.890625 -12.171875 C 8.359375 -11.898438 8.726562 -11.535156 9 -11.078125 C 9.269531 -10.617188 9.40625 -10.109375 9.40625 -9.546875 L 9.40625 0 L 6.359375 0 L 6.359375 -4.59375 L 3.6875 -4.59375 L 3.6875 0 L 0.625 0 L 0.625 -12.59375 Z M 3.6875 -7.625 L 6.359375 -7.625 L 6.359375 -9.546875 L 3.6875 -9.546875 Z M 3.6875 -7.625 "/></g></g></g><g fill="#ffffff" fill-opacity="1"><g transform="translate(273.032698, 217.999248)"><g><path d="M 6.359375 -12.59375 L 9.40625 -12.59375 L 9.40625 0 L 6.359375 0 L 3.6875 -5.890625 L 3.6875 0 L 0.625 0 L 0.625 -12.59375 C 1.5625 -12.59375 2.421875 -12.34375 3.203125 -11.84375 C 3.984375 -11.34375 4.566406 -10.671875 4.953125 -9.828125 L 6.359375 -6.71875 Z M 6.359375 -12.59375 "/></g></g></g><g fill="#ffffff" fill-opacity="1"><g transform="translate(284.696687, 217.999248)"><g><path d="M 9.734375 -12.59375 L 6.265625 -6.296875 L 6.265625 0.03125 L 3.203125 0.03125 L 3.203125 -6.296875 L -0.265625 -12.59375 L 2.796875 -12.59375 L 4.734375 -9.046875 L 6.671875 -12.59375 Z M 9.734375 -12.59375 "/></g></g></g><path stroke-linecap="butt" transform="matrix(0.75, 0, 0, 0.75, 25.293438, 115.030994)" fill="none" stroke-linejoin="miter" d="M 112.322298 111.734724 C 112.301465 111.781599 112.28584 111.823265 112.270215 111.87014 " stroke="#0365a7" stroke-width="2" stroke-opacity="1" stroke-miterlimit="4"/><g clip-path="url(#6d3240de38)"><path fill="#ed6742" d="M 109.535156 198.832031 C 109.519531 198.867188 109.507812 198.898438 109.496094 198.933594 C 108.894531 198.253906 108.355469 197.570312 107.867188 196.878906 C 105.699219 193.792969 103.960938 190.636719 102.660156 187.402344 C 101.308594 184.046875 100.527344 180.480469 100.316406 176.703125 C 99.992188 170.914062 101.691406 165.792969 105.410156 161.332031 C 108.335938 157.828125 112.363281 156.292969 116.8125 155.621094 C 120.796875 155.023438 124.886719 155.335938 129.074219 156.558594 C 129.699219 156.742188 130.296875 157 130.871094 157.335938 C 130.945312 157.378906 130.996094 157.441406 131.019531 157.527344 C 131.042969 157.609375 131.035156 157.6875 130.996094 157.765625 Z M 109.535156 198.832031 " fill-opacity="1" fill-rule="nonzero"/></g><g clip-path="url(#38a50d8be4)"><path fill="#012269" d="M 109.496094 198.933594 C 109.507812 198.898438 109.519531 198.867188 109.535156 198.832031 C 106.910156 203.859375 104.261719 208.875 101.589844 213.878906 C 100.984375 215.011719 100.398438 215.910156 99.832031 216.566406 C 96.644531 220.269531 90.648438 220.175781 87.269531 216.773438 C 86.628906 216.128906 85.855469 214.929688 84.945312 213.167969 C 75.230469 194.371094 65.550781 175.710938 55.910156 157.1875 C 55.875 157.121094 55.875 157.054688 55.914062 156.992188 C 55.953125 156.925781 56.011719 156.894531 56.085938 156.894531 C 60.457031 156.890625 64.570312 156.886719 68.421875 156.875 C 70.558594 156.867188 72.34375 156.980469 73.78125 157.210938 C 77.242188 157.769531 80.320312 159.171875 83.015625 161.410156 C 86.542969 164.339844 88.917969 168.386719 91.007812 172.628906 C 93.039062 176.746094 95.164062 180.929688 97.375 185.171875 C 98.585938 187.5 99.847656 189.699219 101.167969 191.777344 C 102.484375 193.851562 104.242188 195.789062 106.4375 197.578125 C 107.386719 198.351562 108.402344 198.800781 109.496094 198.933594 Z M 109.496094 198.933594 " fill-opacity="1" fill-rule="nonzero"/></g></svg>